<svg preserveAspectRatio="none" overflow="visible" style="display: block;" width="20" height="20.7812" viewBox="0 0 20 20.7812" fill="none" xmlns="http://www.w3.org/2000/svg">
<g id="flight">
<path id="Union" d="M10 0C11.6569 0 13 1.34315 13 3V6.41895L19.4961 10.1318L20 10.4199V14.7373L18.79 14.4775L13 13.2363V14.8818L15 15.8818V20.7812L13.7578 20.4697L10 19.5303L6.24219 20.4697L5 20.7812V15.8818L7 14.8818V13.2363L1.20996 14.4775L0 14.7373V10.4199L0.50391 10.1318L7 6.41895V3C7 1.34315 8.3431 0 10 0ZM10 2C9.4477 2 9 2.44772 9 3V7.58008L8.4961 7.86816L2 11.5801V12.2627L7.79004 11.0225L9 10.7627V16.1182L7 17.1182V18.2197L9.7578 17.5303L10 17.4688L10.2422 17.5303L13 18.2197V17.1182L11 16.1182V10.7627L12.21 11.0225L18 12.2627V11.5801L11.5039 7.86816L11 7.58008V3C11 2.44772 10.5523 2 10 2Z" fill="black"/>
</g>
</svg>
